# Blender v2.93.2 OBJ File: 'coffediy.blend'
# www.blender.org
mtllib coffeecupdst1.mtl
o Cylinder.005_Cylinder.004
v 0.000000 0.148897 -0.835676
v -0.000000 0.215648 -0.785994
v 0.319799 0.148897 -0.772064
v 0.300787 0.215648 -0.726163
v 0.590912 0.148897 -0.590912
v 0.555781 0.215648 -0.555781
v 0.772064 0.148897 -0.319799
v 0.726163 0.215648 -0.300787
v 0.835676 0.148897 0.000000
v 0.785994 0.215648 0.000000
v 0.772064 0.148897 0.319799
v 0.726163 0.215648 0.300787
v 0.590912 0.148897 0.590912
v 0.555781 0.215648 0.555781
v 0.319799 0.148897 0.772064
v 0.300787 0.215648 0.726163
v -0.000000 0.148897 0.835676
v -0.000000 0.215648 0.785994
v -0.319799 0.148897 0.772064
v -0.300787 0.215648 0.726163
v -0.590912 0.148897 0.590912
v -0.555781 0.215648 0.555781
v -0.772064 0.148897 0.319799
v -0.726163 0.215648 0.300787
v -0.835676 0.148897 -0.000000
v -0.785994 0.215648 -0.000000
v -0.772064 0.148897 -0.319799
v -0.726163 0.215648 -0.300787
v -0.590912 0.148897 -0.590912
v -0.555781 0.215648 -0.555781
v -0.319799 0.148897 -0.772064
v -0.300787 0.215648 -0.726163
v 0.418820 3.555591 -1.011122
v 0.000000 3.555591 -1.094430
v 0.773879 3.555591 -0.773879
v 1.011122 3.555591 -0.418820
v 1.094430 3.555591 0.000000
v 1.011122 3.555591 0.418820
v 0.773879 3.555591 0.773879
v 0.418820 3.555591 1.011122
v -0.000000 3.555591 1.094430
v -0.418820 3.555591 1.011122
v -0.773879 3.555591 0.773879
v -1.011122 3.555591 0.418820
v -1.094430 3.555591 -0.000000
v -1.011122 3.555591 -0.418821
v -0.773879 3.555591 -0.773879
v -0.418820 3.555591 -1.011122
v -0.000000 0.148897 -1.117167
v 0.427521 0.148897 -1.032128
v 0.559897 3.555591 -1.351711
v -0.000000 3.555591 -1.463081
v 0.789957 0.148897 -0.789957
v 1.034554 3.555591 -1.034554
v 1.032128 0.148897 -0.427521
v 1.351711 3.555591 -0.559897
v 1.117167 0.148897 0.000000
v 1.463081 3.555591 0.000000
v 1.032128 0.148897 0.427521
v 1.351711 3.555591 0.559897
v 0.789957 0.148897 0.789957
v 1.034554 3.555591 1.034554
v 0.427521 0.148897 1.032128
v 0.559897 3.555591 1.351711
v -0.000000 0.148897 1.117167
v -0.000000 3.555591 1.463081
v -0.427521 0.148897 1.032128
v -0.559897 3.555591 1.351711
v -0.789956 0.148897 0.789957
v -1.034554 3.555591 1.034555
v -1.032128 0.148897 0.427522
v -1.351711 3.555591 0.559897
v -1.117167 0.148897 -0.000000
v -1.463081 3.555591 -0.000000
v -1.032128 0.148897 -0.427522
v -1.351711 3.555591 -0.559897
v -0.789957 0.148897 -0.789956
v -1.034555 3.555591 -1.034554
v -0.427521 0.148897 -1.032128
v -0.559897 3.555591 -1.351711
vt 0.471731 0.158156
vt 0.419706 0.080294
vt 0.419706 0.080294
vt 0.471731 0.158156
vt 0.658156 0.471731
vt 0.580294 0.419706
vt 0.580294 0.419706
vt 0.658156 0.471731
vt 0.919706 0.080294
vt 0.971731 0.158156
vt 0.971731 0.158156
vt 0.919706 0.080294
vt 0.158156 0.028269
vt 0.080294 0.080294
vt 0.080294 0.080294
vt 0.158156 0.028269
vt 0.580294 0.080294
vt 0.658156 0.028269
vt 0.658156 0.028269
vt 0.580294 0.080294
vt 0.250000 0.490000
vt 0.341844 0.471731
vt 0.341844 0.471731
vt 0.250000 0.490000
vt 0.028269 0.341844
vt 0.080294 0.419706
vt 0.080294 0.419706
vt 0.028269 0.341844
vt 0.490000 0.250000
vt 0.490000 0.250000
vt 0.841844 0.471731
vt 0.750000 0.490000
vt 0.750000 0.490000
vt 0.841844 0.471731
vt 0.528269 0.341844
vt 0.528269 0.341844
vt 0.990000 0.250000
vt 0.990000 0.250000
vt 0.250000 0.010000
vt 0.250000 0.010000
vt 0.750000 0.010000
vt 0.750000 0.010000
vt 0.010000 0.250000
vt 0.010000 0.250000
vt 0.336256 0.458242
vt 0.250000 0.475399
vt 0.163743 0.458242
vt 0.090619 0.409381
vt 0.041758 0.336256
vt 0.024601 0.250000
vt 0.041758 0.163743
vt 0.090619 0.090619
vt 0.163743 0.041758
vt 0.250000 0.024601
vt 0.336256 0.041758
vt 0.409381 0.090619
vt 0.458242 0.163743
vt 0.475399 0.250000
vt 0.458242 0.336257
vt 0.409381 0.409381
vt 0.471731 0.341844
vt 0.471731 0.341844
vt 0.510000 0.250000
vt 0.510000 0.250000
vt 0.919706 0.419706
vt 0.971731 0.341844
vt 0.841844 0.028269
vt 0.528269 0.158156
vt 0.419706 0.419706
vt 0.341844 0.028269
vt 0.028269 0.158156
vt 0.158156 0.471731
vt 1.000000 0.500000
vt 1.000000 1.000000
vt 0.937500 1.000000
vt 0.937500 0.500000
vt 0.875000 1.000000
vt 0.875000 0.500000
vt 0.812500 1.000000
vt 0.812500 0.500000
vt 0.750000 1.000000
vt 0.750000 0.500000
vt 0.687500 1.000000
vt 0.687500 0.500000
vt 0.625000 1.000000
vt 0.625000 0.500000
vt 0.562500 1.000000
vt 0.562500 0.500000
vt 0.500000 1.000000
vt 0.500000 0.500000
vt 0.437500 1.000000
vt 0.437500 0.500000
vt 0.375000 1.000000
vt 0.375000 0.500000
vt 0.312500 1.000000
vt 0.312500 0.500000
vt 0.250000 1.000000
vt 0.250000 0.500000
vt 0.187500 1.000000
vt 0.187500 0.500000
vt 0.125000 1.000000
vt 0.125000 0.500000
vt 0.062500 1.000000
vt 0.062500 0.500000
vt 0.000000 1.000000
vt 0.000000 0.500000
vt 0.158156 0.471731
vt 0.919706 0.419706
vt 0.528269 0.158156
vt 0.419706 0.419706
vt 0.028269 0.158156
vt 0.841844 0.028269
vt 0.341844 0.028269
vt 0.971731 0.341844
vn 0.0000 1.0000 0.0000
vn -0.0000 -1.0000 -0.0000
vn -0.1943 0.0902 0.9768
vn -0.5533 0.0902 0.8281
vn -0.8281 0.0902 0.5533
vn -0.9768 0.0902 0.1943
vn -0.9768 0.0902 -0.1943
vn -0.8281 0.0902 -0.5533
vn -0.5533 0.0902 -0.8281
vn -0.1943 0.0902 -0.9768
vn 0.1943 0.0902 -0.9768
vn 0.5533 0.0902 -0.8281
vn 0.8281 0.0902 -0.5533
vn 0.9768 0.0902 -0.1943
vn 0.9768 0.0902 0.1943
vn 0.8281 0.0902 0.5533
vn 0.5533 0.0902 0.8281
vn 0.1943 0.0902 0.9768
vn 0.1941 -0.0991 -0.9760
vn 0.5528 -0.0991 -0.8274
vn 0.8274 -0.0991 -0.5528
vn 0.9760 -0.0991 -0.1941
vn 0.9760 -0.0991 0.1941
vn 0.8274 -0.0991 0.5528
vn 0.5528 -0.0991 0.8274
vn 0.1941 -0.0991 0.9760
vn -0.1941 -0.0991 0.9760
vn -0.5528 -0.0991 0.8274
vn -0.8274 -0.0991 0.5528
vn -0.9760 -0.0991 0.1941
vn -0.9760 -0.0991 -0.1941
vn -0.8274 -0.0991 -0.5528
vn -0.5528 -0.0991 -0.8274
vn -0.1941 -0.0991 -0.9760
usemtl None
s off
f 38/1/1 39/2/1 62/3/1 60/4/1
f 31/5/2 29/6/2 77/7/2 79/8/2
f 13/9/2 11/10/2 59/11/2 61/12/2
f 42/13/1 43/14/1 70/15/1 68/16/1
f 21/17/2 19/18/2 67/19/2 69/20/2
f 34/21/1 33/22/1 51/23/1 52/24/1
f 46/25/1 47/26/1 78/27/1 76/28/1
f 37/29/1 38/1/1 60/4/1 58/30/1
f 3/31/2 1/32/2 49/33/2 50/34/2
f 29/6/2 27/35/2 75/36/2 77/7/2
f 11/10/2 9/37/2 57/38/2 59/11/2
f 41/39/1 42/13/1 68/16/1 66/40/1
f 19/18/2 17/41/2 65/42/2 67/19/2
f 45/43/1 46/25/1 76/28/1 74/44/1
f 4/45/1 2/46/1 32/47/1 30/48/1 28/49/1 26/50/1 24/51/1 22/52/1 20/53/1 18/54/1 16/55/1 14/56/1 12/57/1 10/58/1 8/59/1 6/60/1
f 36/61/1 37/29/1 58/30/1 56/62/1
f 27/35/2 25/63/2 73/64/2 75/36/2
f 1/32/2 3/31/2 5/65/2 7/66/2 9/37/2 11/10/2 13/9/2 15/67/2 17/41/2 19/18/2 21/17/2 23/68/2 25/63/2 27/35/2 29/6/2 31/5/2
f 2/46/3 4/45/3 33/22/3 34/21/3
f 4/45/4 6/60/4 35/69/4 33/22/4
f 6/60/5 8/59/5 36/61/5 35/69/5
f 8/59/6 10/58/6 37/29/6 36/61/6
f 10/58/7 12/57/7 38/1/7 37/29/7
f 12/57/8 14/56/8 39/2/8 38/1/8
f 14/56/9 16/55/9 40/70/9 39/2/9
f 16/55/10 18/54/10 41/39/10 40/70/10
f 18/54/11 20/53/11 42/13/11 41/39/11
f 20/53/12 22/52/12 43/14/12 42/13/12
f 22/52/13 24/51/13 44/71/13 43/14/13
f 24/51/14 26/50/14 45/43/14 44/71/14
f 26/50/15 28/49/15 46/25/15 45/43/15
f 28/49/16 30/48/16 47/26/16 46/25/16
f 30/48/17 32/47/17 48/72/17 47/26/17
f 32/47/18 2/46/18 34/21/18 48/72/18
f 49/73/19 52/74/19 51/75/19 50/76/19
f 50/76/20 51/75/20 54/77/20 53/78/20
f 53/78/21 54/77/21 56/79/21 55/80/21
f 55/80/22 56/79/22 58/81/22 57/82/22
f 57/82/23 58/81/23 60/83/23 59/84/23
f 59/84/24 60/83/24 62/85/24 61/86/24
f 61/86/25 62/85/25 64/87/25 63/88/25
f 63/88/26 64/87/26 66/89/26 65/90/26
f 65/90/27 66/89/27 68/91/27 67/92/27
f 67/92/28 68/91/28 70/93/28 69/94/28
f 69/94/29 70/93/29 72/95/29 71/96/29
f 71/96/30 72/95/30 74/97/30 73/98/30
f 73/98/31 74/97/31 76/99/31 75/100/31
f 75/100/32 76/99/32 78/101/32 77/102/32
f 77/102/33 78/101/33 80/103/33 79/104/33
f 79/104/34 80/103/34 52/105/34 49/106/34
f 47/26/1 48/72/1 80/107/1 78/27/1
f 5/65/2 3/31/2 50/34/2 53/108/2
f 23/68/2 21/17/2 69/20/2 71/109/2
f 33/22/1 35/69/1 54/110/1 51/23/1
f 43/14/1 44/71/1 72/111/1 70/15/1
f 15/67/2 13/9/2 61/12/2 63/112/2
f 1/32/2 31/5/2 79/8/2 49/33/2
f 39/2/1 40/70/1 64/113/1 62/3/1
f 48/72/1 34/21/1 52/24/1 80/107/1
f 7/66/2 5/65/2 53/108/2 55/114/2
f 25/63/2 23/68/2 71/109/2 73/64/2
f 35/69/1 36/61/1 56/62/1 54/110/1
f 44/71/1 45/43/1 74/44/1 72/111/1
f 17/41/2 15/67/2 63/112/2 65/42/2
f 40/70/1 41/39/1 66/40/1 64/113/1
f 9/37/2 7/66/2 55/114/2 57/38/2
